<svg xmlns="http://www.w3.org/2000/svg" xmlns:xlink="http://www.w3.org/1999/xlink" aria-hidden="true" role="img" class="iconify iconify--logos" width="31.88" height="32" preserveAspectRatio="xMidYMid meet" viewBox="0 0 256 257"><defs><linearGradient id="IconifyId1813088fe1fbc01fb466" x1="-.828%" x2="57.636%" y1="7.652%" y2="78.411%"><stop offset="0%" stop-color="#41D1FF"></stop><stop offset="100%" stop-color="#BD34FE"></stop></linearGradient><linearGradient id="IconifyId1813088fe1fbc01fb467" x1="43.376%" x2="50.316%" y1="2.242%" y2="89.03%"><stop offset="0%" stop-color="#FFBD4F"></stop><stop offset="100%" stop-color="#FF980E"></stop></linearGradient></defs><path fill="url(#IconifyId1813088fe1fbc01fb466)" d="M255.153 37.938L134.897 252.976c-2.483 4.44-8.862 4.466-11.382.048L.875 37.958c-2.746-4.316 2.235-8.718 5.43-6.96l120.385 61.894a5.2 5.2 0 0 0 4.573 0l120.33-61.893c3.196-1.758 8.18 2.644 5.52 6.96z"></path><path fill="url(#IconifyId1813088fe1fbc01fb467)" d="M185.432.063L96.44 17.501a3.2 3.2 0 0 0-2.592 3.014l-5.474 92.456a3.2 3.2 0 0 0 3.68 3.054l59.018-11.096c3.96-.743 3.96-6.12 0-6.863l-59.018-11.096a3.2 3.2 0 0 1-2.586-3.013L84.75 29.064c-.255-2.715 2.644-4.736 5.227-3.78l89.018 17.44a3.2 3.2 0 0 1 2.586 3.012l5.474 92.456a3.2 3.2 0 0 1-3.68 3.055l-26.63-5.005c-3.96-.743-3.96-6.12 0-6.863l26.63-5.005c3.96-.744 3.96-6.12 0-6.864l-26.63-5.004c-3.96-.744-3.96-6.12 0-6.863l26.63-5.005a3.2 3.2 0 0 0 2.586-3.012L185.432.063z"></path></svg>
